<svg width="20" height="16" viewBox="0 0 20 16" fill="none" xmlns="http://www.w3.org/2000/svg">
<path d="M6.26521 7.71103C7.28776 7.71103 8.26842 7.30482 8.99147 6.58178C9.71452 5.85873 10.1207 4.87806 10.1207 3.85551C10.1207 2.83297 9.71452 1.8523 8.99147 1.12925C8.26842 0.406205 7.28776 0 6.26521 0C5.24266 0 4.262 0.406205 3.53895 1.12925C2.8159 1.8523 2.4097 2.83297 2.4097 3.85551C2.4097 4.87806 2.8159 5.85873 3.53895 6.58178C4.262 7.30482 5.24266 7.71103 6.26521 7.71103ZM14.9401 7.71103C15.707 7.71103 16.4425 7.40638 16.9848 6.86409C17.5271 6.3218 17.8318 5.5863 17.8318 4.81939C17.8318 4.05248 17.5271 3.31698 16.9848 2.7747C16.4425 2.23241 15.707 1.92776 14.9401 1.92776C14.1732 1.92776 13.4377 2.23241 12.8954 2.7747C12.3531 3.31698 12.0485 4.05248 12.0485 4.81939C12.0485 5.5863 12.3531 6.3218 12.8954 6.86409C13.4377 7.40638 14.1732 7.71103 14.9401 7.71103ZM1.80727 9.15685C1.32795 9.15685 0.868267 9.34725 0.529338 9.68618C0.190409 10.0251 0 10.4848 0 10.9641V11.5665C0 11.5665 0 15.904 6.26521 15.904C12.5304 15.904 12.5304 11.5665 12.5304 11.5665V10.9641C12.5304 10.4848 12.34 10.0251 12.0011 9.68618C11.6622 9.34725 11.2025 9.15685 10.7232 9.15685H1.80727ZM12.3733 14.5011C13.0365 14.77 13.8765 14.9401 14.9396 14.9401C20 14.9401 20 11.0846 20 11.0846V10.9641C20 10.4849 19.8097 10.0253 19.4708 9.68636C19.132 9.34744 18.6724 9.15697 18.1932 9.15685H12.823C13.2563 9.65915 13.4943 10.3007 13.4933 10.9641V11.5882L13.4929 11.6157C13.49 11.7093 13.4836 11.8027 13.4736 11.8957C13.4497 12.1108 13.4109 12.324 13.3574 12.5338C13.1749 13.2528 12.8392 13.9239 12.3733 14.5011Z" fill="#ECA820"/>
</svg>
