<svg xmlns="http://www.w3.org/2000/svg" width="12" height="10" fill="none" viewBox="0 0 12 10"><path fill="#38B000" d="M11.2964 0.00121218C10.1548 0.0706315 7.88555 0.323309 6.4847 1.24205C6.38803 1.30545 6.33323 1.41817 6.33323 1.53603V9.65808C6.33323 9.9159 6.59636 10.0788 6.81824 9.9592C8.25952 9.18197 10.3439 8.96992 11.3746 8.91188C11.7265 8.89202 12 8.58979 12 8.22751V0.686477C12.0002 0.291166 11.6802 -0.022002 11.2964 0.00121218ZM5.5153 1.24205C4.11466 0.323309 1.84545 0.0708547 0.703762 0.00121218C0.320006 -0.022002 0 0.291166 0 0.686477V8.22773C0 8.59023 0.273546 8.89246 0.625428 8.91211C1.65649 8.97014 3.74194 9.18242 5.18322 9.96009C5.40447 10.0795 5.66677 9.91679 5.66677 9.65965V1.53201C5.66677 1.41393 5.61218 1.30567 5.5153 1.24205Z"/></svg>